# xmcd
#
# Track frame offsets:
#	150
#	28310
#	55097
#	78847
#	95175
#	116707
#	134385
#	158142
#	187052
#	205437
#	226260
#	256525
#
# Disc length: 3765 seconds
#
# Revision: 6
# Processed by: cddbd v1.5.2PL0 Copyright (c) Steve Scherf et al.
# Submitted via: audiograbber 1.83.01
#
DISCID=a30eb30c
DTITLE=Alabama 3 - Exile on Coldharbour Lane
DYEAR=1997
DGENRE=Country
TTITLE0=Converted
TTITLE1=Speed of the Sound of Loneliness
TTITLE2=Woke Up This Morning
TTITLE3=U Don't Dans 2 Tekno Anymore
TTITLE4=Bourgeoisie Blues
TTITLE5=Ain't Goin' to Goa
TTITLE6=Mao Tse Tung Said
TTITLE7=Hypo Full of Love
TTITLE8=The Old Purple Tin
TTITLE9=The Night We Nearly Got Busted
TTITLE10=Sister Rosetta
TTITLE11=Peace in the Valley
EXTD=
EXTT0=
EXTT1=
EXTT2=
EXTT3=
EXTT4=
EXTT5=
EXTT6=
EXTT7=(The 12 Step Plan)
EXTT8=(9% of Pure Heaven)
EXTT9=
EXTT10=
EXTT11=
PLAYORDER=
